<svg width="47" height="47" viewBox="0 0 47 47" fill="none" xmlns="http://www.w3.org/2000/svg">
<rect width="47" height="47" rx="9" fill="#DF6951"/>
<path d="M10.9 23.5C10.9 21.2067 11.34 19.4 12.22 18.08C13.1133 16.76 14.5467 16.1 16.52 16.1C18.4933 16.1 19.92 16.76 20.8 18.08C21.6933 19.4 22.14 21.2067 22.14 23.5C22.14 25.82 21.6933 27.64 20.8 28.96C19.92 30.28 18.4933 30.94 16.52 30.94C14.5467 30.94 13.1133 30.28 12.22 28.96C11.34 27.64 10.9 25.82 10.9 23.5ZM18.78 23.5C18.78 22.1533 18.6333 21.12 18.34 20.4C18.0467 19.6667 17.44 19.3 16.52 19.3C15.6 19.3 14.9933 19.6667 14.7 20.4C14.4067 21.12 14.26 22.1533 14.26 23.5C14.26 24.4067 14.3133 25.16 14.42 25.76C14.5267 26.3467 14.74 26.8267 15.06 27.2C15.3933 27.56 15.88 27.74 16.52 27.74C17.16 27.74 17.64 27.56 17.96 27.2C18.2933 26.8267 18.5133 26.3467 18.62 25.76C18.7267 25.16 18.78 24.4067 18.78 23.5ZM26.0669 20.52C26.1202 19.0933 26.5869 17.9933 27.4669 17.22C28.3469 16.4467 29.5402 16.06 31.0469 16.06C32.0469 16.06 32.9002 16.2333 33.6069 16.58C34.3269 16.9267 34.8669 17.4 35.2269 18C35.6002 18.6 35.7869 19.2733 35.7869 20.02C35.7869 20.9 35.5669 21.62 35.1269 22.18C34.6869 22.7267 34.1735 23.1 33.5869 23.3V23.38C34.3469 23.6333 34.9469 24.0533 35.3869 24.64C35.8269 25.2267 36.0469 25.98 36.0469 26.9C36.0469 27.7267 35.8535 28.46 35.4669 29.1C35.0935 29.7267 34.5402 30.22 33.8069 30.58C33.0869 30.94 32.2269 31.12 31.2269 31.12C29.6269 31.12 28.3469 30.7267 27.3869 29.94C26.4402 29.1533 25.9402 27.9667 25.8869 26.38H29.2069C29.2202 26.9667 29.3869 27.4333 29.7069 27.78C30.0269 28.1133 30.4935 28.28 31.1069 28.28C31.6269 28.28 32.0269 28.1333 32.3069 27.84C32.6002 27.5333 32.7469 27.1333 32.7469 26.64C32.7469 26 32.5402 25.54 32.1269 25.26C31.7269 24.9667 31.0802 24.82 30.1869 24.82H29.5469V22.04H30.1869C30.8669 22.04 31.4135 21.9267 31.8269 21.7C32.2535 21.46 32.4669 21.04 32.4669 20.44C32.4669 19.96 32.3335 19.5867 32.0669 19.32C31.8002 19.0533 31.4335 18.92 30.9669 18.92C30.4602 18.92 30.0802 19.0733 29.8269 19.38C29.5869 19.6867 29.4469 20.0667 29.4069 20.52H26.0669Z" fill="white"/>
</svg>
