<svg xmlns="http://www.w3.org/2000/svg" version="1.1" xmlns:xlink="http://www.w3.org/1999/xlink" width="512" height="512" x="0" y="0" viewBox="0 0 59 58" style="enable-background:new 0 0 512 512" xml:space="preserve" class=""><g><g fill="none"><path fill="#71C285" d="M33.49 41.04c-.22 2.65-2.12 4.79-1.81 7.53.289 1.3.41 2.63.36 3.96a16.426 16.426 0 0 1-.63 2.69c-7.529-4.733-10.466-14.26-6.91-22.41a6.2 6.2 0 0 0 3.46 4.81c1.3.54 2.82.56 4.14 1.14a2.175 2.175 0 0 1 1.39 2.28z" opacity="1" data-original="#71c285"></path><path fill="#3B97D3" d="M57.58 47.01a17.97 17.97 0 0 1-6.23 7.71 16.524 16.524 0 0 0-4.07-.82 17.86 17.86 0 0 0-5.53.35 12.891 12.891 0 0 0-5.55 3.09 17.761 17.761 0 0 1-4.79-2.12c.285-.877.496-1.777.63-2.69.05-1.33-.071-2.66-.36-3.96-.31-2.74 1.59-4.88 1.81-7.53a2.175 2.175 0 0 0-1.39-2.28c-1.32-.58-2.84-.6-4.14-1.14a6.2 6.2 0 0 1-3.46-4.81A17.737 17.737 0 0 1 27.59 28a17.016 17.016 0 0 1 2.97-2.65l9.7-3.33c.25-.02.49-.02.74-.02.4 0 .79.01 1.18.04 2.37.152 4.686.777 6.81 1.84l-.02.02a14.065 14.065 0 0 1-5.55 3.96 6.716 6.716 0 0 0-2.49 1.89l-.35 4.19A5.83 5.83 0 0 0 44 35.95c2.44.54 4.63 1.91 4.64 4.65a9.987 9.987 0 0 1-.74 3.36 13 13 0 0 0-1.2 4c-.04 1.82 1.48 2.76 3.2 2.54a7.221 7.221 0 0 0 3.1-1.29c.11-.064.217-.134.32-.21a12.547 12.547 0 0 1 4.26-1.99z" opacity="1" data-original="#3b97d3"></path><path fill="#71C285" d="M51.35 54.72a17.914 17.914 0 0 1-15.15 2.62 12.891 12.891 0 0 1 5.55-3.09 17.86 17.86 0 0 1 5.53-.35c1.386.101 2.753.377 4.07.82zM59 40a17.844 17.844 0 0 1-1.42 7.01A12.547 12.547 0 0 0 53.32 49c-.103.076-.21.146-.32.21a7.221 7.221 0 0 1-3.1 1.29c-1.72.22-3.24-.72-3.2-2.54a13 13 0 0 1 1.2-4c.44-1.069.69-2.206.74-3.36-.01-2.74-2.2-4.11-4.64-4.65a5.83 5.83 0 0 1-3.42-2.01l.35-4.19a6.716 6.716 0 0 1 2.49-1.89 14.065 14.065 0 0 0 5.55-3.96l.02-.02A17.97 17.97 0 0 1 59 40z" opacity="1" data-original="#71c285"></path><path fill="#C03A2B" d="M31.863 23.515a7.558 7.558 0 0 0-1.929 3.577v.006a1.47 1.47 0 0 0 1.786 1.785v.006a7.358 7.358 0 0 0 2.339-.968l5.062-4.774 2.65-2.649a1.682 1.682 0 0 0 .063-2.368l-1.152-1.151a1.68 1.68 0 0 0-2.367.063l-.68.68z" opacity="1" data-original="#c03a2b"></path><path fill="#E64C3C" d="m27.278 7.355.68-.68a1.68 1.68 0 0 0 .063-2.367L26.87 3.156a1.682 1.682 0 0 0-2.368.063l-2.649 2.65-4.774 5.062a7.358 7.358 0 0 0-.968 2.339l.006.005a1.47 1.47 0 0 0 1.783 1.786h.006a7.558 7.558 0 0 0 3.577-1.929z" opacity="1" data-original="#e64c3c"></path><path fill="#BDC3C7" d="M44.65.35 14.2 30.81l-.58-.58-3.45-3.46a.809.809 0 0 1 0-1.15l.82-.83c.206-.2.501-.28.78-.21l3.62.9a.822.822 0 0 0 .86-.31l3.07-4.3a47.724 47.724 0 0 1 5.25-6.19v-.01L9.45 7.12a.819.819 0 0 1-.21-1.31l.32-.31a5.68 5.68 0 0 1 5.53-1.47L30.9 8.34c.11-.11.84-.83 4.61-4.61C39.66-.42 43.07-.14 44.27.14c.142.037.273.11.38.21z" opacity="1" data-original="#bdc3c7"></path><path fill="#95A5A5" d="m36.66 14.1 4.31 15.81a5.68 5.68 0 0 1-1.47 5.53l-.31.32a.819.819 0 0 1-1.31-.21l-7.55-15.12h-.01a47.724 47.724 0 0 1-6.19 5.25l-4.3 3.07a.822.822 0 0 0-.31.86l.9 3.62a.832.832 0 0 1-.21.78l-.83.82a.809.809 0 0 1-1.15 0l-3.46-3.45-.57-.57L44.65.35c.1.107.173.238.21.38.28 1.2.56 4.61-3.59 8.76-3.78 3.77-4.5 4.5-4.61 4.61z" opacity="1" data-original="#95a5a5"></path><g fill="#84B5CB" transform="translate(0 -1)"><path d="M13 58a1 1 0 0 1-.411-.088C5.957 54.926 1.976 50.372.757 44.378-.98 35.832 3.483 26.344 8.676 20.731a1 1 0 0 1 1.468 1.358c-4.69 5.069-9.015 14.081-7.427 21.89C3.8 49.308 7.4 53.382 13.411 56.088A1 1 0 0 1 13 58z" fill="#84B5CB" opacity="1" data-original="#84b5cb"></path><path d="M16 55a1 1 0 0 1-.554-.168c-4.67-3.113-7.491-7.343-7.944-11.909a10.742 10.742 0 0 1 2.792-8.63 1 1 0 0 1 1.414 1.414 8.733 8.733 0 0 0-2.215 7.019c.392 3.959 2.9 7.667 7.063 10.442A1 1 0 0 1 16 55z" fill="#84B5CB" opacity="1" data-original="#84b5cb"></path><path d="M19 52a1 1 0 0 1-.707-.293c-4.311-4.311-4.515-9.9-2-12.414a1 1 0 0 1 1.414 1.414 4.828 4.828 0 0 0-.965 3.919 9.952 9.952 0 0 0 2.965 5.667A1 1 0 0 1 19 52z" fill="#84B5CB" opacity="1" data-original="#84b5cb"></path><circle cx="12" cy="19" r="1" fill="#84B5CB" opacity="1" data-original="#84b5cb"></circle></g></g></g></svg>