<svg width="47" height="47" viewBox="0 0 47 47" fill="none" xmlns="http://www.w3.org/2000/svg">
<rect width="47" height="47" rx="9" fill="#DF6951"/>
<path d="M10.9 23.5C10.9 21.2067 11.34 19.4 12.22 18.08C13.1133 16.76 14.5467 16.1 16.52 16.1C18.4933 16.1 19.92 16.76 20.8 18.08C21.6933 19.4 22.14 21.2067 22.14 23.5C22.14 25.82 21.6933 27.64 20.8 28.96C19.92 30.28 18.4933 30.94 16.52 30.94C14.5467 30.94 13.1133 30.28 12.22 28.96C11.34 27.64 10.9 25.82 10.9 23.5ZM18.78 23.5C18.78 22.1533 18.6333 21.12 18.34 20.4C18.0467 19.6667 17.44 19.3 16.52 19.3C15.6 19.3 14.9933 19.6667 14.7 20.4C14.4067 21.12 14.26 22.1533 14.26 23.5C14.26 24.4067 14.3133 25.16 14.42 25.76C14.5267 26.3467 14.74 26.8267 15.06 27.2C15.3933 27.56 15.88 27.74 16.52 27.74C17.16 27.74 17.64 27.56 17.96 27.2C18.2933 26.8267 18.5133 26.3467 18.62 25.76C18.7267 25.16 18.78 24.4067 18.78 23.5ZM25.8269 28.26C26.2802 27.9 26.4869 27.7333 26.4469 27.76C27.7535 26.68 28.7802 25.7933 29.5269 25.1C30.2869 24.4067 30.9269 23.68 31.4469 22.92C31.9669 22.16 32.2269 21.42 32.2269 20.7C32.2269 20.1533 32.1002 19.7267 31.8469 19.42C31.5935 19.1133 31.2135 18.96 30.7069 18.96C30.2002 18.96 29.8002 19.1533 29.5069 19.54C29.2269 19.9133 29.0869 20.4467 29.0869 21.14H25.7869C25.8135 20.0067 26.0535 19.06 26.5069 18.3C26.9735 17.54 27.5802 16.98 28.3269 16.62C29.0869 16.26 29.9269 16.08 30.8469 16.08C32.4335 16.08 33.6269 16.4867 34.4269 17.3C35.2402 18.1133 35.6469 19.1733 35.6469 20.48C35.6469 21.9067 35.1602 23.2333 34.1869 24.46C33.2135 25.6733 31.9735 26.86 30.4669 28.02H35.8669V30.8H25.8269V28.26Z" fill="white"/>
</svg>
