<svg width="47" height="47" viewBox="0 0 47 47" fill="none" xmlns="http://www.w3.org/2000/svg">
<rect width="47" height="47" rx="9" fill="#DF6951"/>
<path d="M10.9 23.5C10.9 21.2067 11.34 19.4 12.22 18.08C13.1133 16.76 14.5467 16.1 16.52 16.1C18.4933 16.1 19.92 16.76 20.8 18.08C21.6933 19.4 22.14 21.2067 22.14 23.5C22.14 25.82 21.6933 27.64 20.8 28.96C19.92 30.28 18.4933 30.94 16.52 30.94C14.5467 30.94 13.1133 30.28 12.22 28.96C11.34 27.64 10.9 25.82 10.9 23.5ZM18.78 23.5C18.78 22.1533 18.6333 21.12 18.34 20.4C18.0467 19.6667 17.44 19.3 16.52 19.3C15.6 19.3 14.9933 19.6667 14.7 20.4C14.4067 21.12 14.26 22.1533 14.26 23.5C14.26 24.4067 14.3133 25.16 14.42 25.76C14.5267 26.3467 14.74 26.8267 15.06 27.2C15.3933 27.56 15.88 27.74 16.52 27.74C17.16 27.74 17.64 27.56 17.96 27.2C18.2933 26.8267 18.5133 26.3467 18.62 25.76C18.7267 25.16 18.78 24.4067 18.78 23.5ZM26.0269 28.4V25.64L32.3469 16.6H36.1669V25.44H37.8069V28.4H36.1669V31H32.7469V28.4H26.0269ZM32.9869 20.36L29.6269 25.44H32.9869V20.36Z" fill="white"/>
</svg>
