<svg width="22" height="22" viewBox="0 0 22 22" fill="none" xmlns="http://www.w3.org/2000/svg">
<path d="M18.5832 2.33366H16.4165V1.25033C16.4165 0.963008 16.3024 0.687458 16.0992 0.484293C15.896 0.281129 15.6205 0.166992 15.3332 0.166992C15.0459 0.166992 14.7703 0.281129 14.5671 0.484293C14.364 0.687458 14.2498 0.963008 14.2498 1.25033V2.33366H7.74984V1.25033C7.74984 0.963008 7.6357 0.687458 7.43254 0.484293C7.22937 0.281129 6.95382 0.166992 6.6665 0.166992C6.37919 0.166992 6.10364 0.281129 5.90047 0.484293C5.69731 0.687458 5.58317 0.963008 5.58317 1.25033V2.33366H3.4165C2.55455 2.33366 1.7279 2.67607 1.11841 3.28556C0.508914 3.89505 0.166504 4.7217 0.166504 5.58366V18.5837C0.166504 19.4456 0.508914 20.2723 1.11841 20.8818C1.7279 21.4912 2.55455 21.8337 3.4165 21.8337H18.5832C19.4451 21.8337 20.2718 21.4912 20.8813 20.8818C21.4908 20.2723 21.8332 19.4456 21.8332 18.5837V5.58366C21.8332 4.7217 21.4908 3.89505 20.8813 3.28556C20.2718 2.67607 19.4451 2.33366 18.5832 2.33366ZM19.6665 18.5837C19.6665 18.871 19.5524 19.1465 19.3492 19.3497C19.146 19.5529 18.8705 19.667 18.5832 19.667H3.4165C3.12919 19.667 2.85364 19.5529 2.65047 19.3497C2.44731 19.1465 2.33317 18.871 2.33317 18.5837V11.0003H19.6665V18.5837ZM19.6665 8.83366H2.33317V5.58366C2.33317 5.29634 2.44731 5.02079 2.65047 4.81763C2.85364 4.61446 3.12919 4.50033 3.4165 4.50033H5.58317V5.58366C5.58317 5.87098 5.69731 6.14653 5.90047 6.34969C6.10364 6.55286 6.37919 6.66699 6.6665 6.66699C6.95382 6.66699 7.22937 6.55286 7.43254 6.34969C7.6357 6.14653 7.74984 5.87098 7.74984 5.58366V4.50033H14.2498V5.58366C14.2498 5.87098 14.364 6.14653 14.5671 6.34969C14.7703 6.55286 15.0459 6.66699 15.3332 6.66699C15.6205 6.66699 15.896 6.55286 16.0992 6.34969C16.3024 6.14653 16.4165 5.87098 16.4165 5.58366V4.50033H18.5832C18.8705 4.50033 19.146 4.61446 19.3492 4.81763C19.5524 5.02079 19.6665 5.29634 19.6665 5.58366V8.83366Z" fill="black"/>
</svg>
