<svg width="8" height="14" viewBox="0 0 8 14" fill="none" xmlns="http://www.w3.org/2000/svg">
<path fill-rule="evenodd" clip-rule="evenodd" d="M7.35408 0.646039C7.40065 0.692485 7.43759 0.747661 7.4628 0.808406C7.488 0.869151 7.50098 0.934272 7.50098 1.00004C7.50098 1.06581 7.488 1.13093 7.4628 1.19167C7.43759 1.25242 7.40065 1.30759 7.35408 1.35404L1.70708 7.00004L7.35408 12.646C7.40057 12.6925 7.43745 12.7477 7.46261 12.8085C7.48776 12.8692 7.50071 12.9343 7.50071 13C7.50071 13.0658 7.48776 13.1309 7.46261 13.1916C7.43745 13.2524 7.40057 13.3076 7.35408 13.354C7.30759 13.4005 7.25241 13.4374 7.19167 13.4626C7.13093 13.4877 7.06583 13.5007 7.00008 13.5007C6.93434 13.5007 6.86924 13.4877 6.8085 13.4626C6.74776 13.4374 6.69257 13.4005 6.64608 13.354L0.646083 7.35404C0.599519 7.30759 0.562577 7.25242 0.53737 7.19167C0.512164 7.13093 0.499189 7.06581 0.499189 7.00004C0.499189 6.93427 0.512164 6.86915 0.53737 6.80841C0.562577 6.74766 0.599519 6.69248 0.646083 6.64604L6.64608 0.646039C6.69253 0.599476 6.7477 0.562533 6.80845 0.537327C6.86919 0.51212 6.93432 0.499145 7.00008 0.499145C7.06585 0.499145 7.13097 0.51212 7.19172 0.537327C7.25246 0.562533 7.30764 0.599476 7.35408 0.646039Z" fill="black"/>
</svg>
