<svg width="47" height="47" viewBox="0 0 47 47" fill="none" xmlns="http://www.w3.org/2000/svg">
<rect width="47" height="47" rx="9" fill="#DF6951"/>
<path d="M12.9 23.5C12.9 21.2067 13.34 19.4 14.22 18.08C15.1133 16.76 16.5467 16.1 18.52 16.1C20.4933 16.1 21.92 16.76 22.8 18.08C23.6933 19.4 24.14 21.2067 24.14 23.5C24.14 25.82 23.6933 27.64 22.8 28.96C21.92 30.28 20.4933 30.94 18.52 30.94C16.5467 30.94 15.1133 30.28 14.22 28.96C13.34 27.64 12.9 25.82 12.9 23.5ZM20.78 23.5C20.78 22.1533 20.6333 21.12 20.34 20.4C20.0467 19.6667 19.44 19.3 18.52 19.3C17.6 19.3 16.9933 19.6667 16.7 20.4C16.4067 21.12 16.26 22.1533 16.26 23.5C16.26 24.4067 16.3133 25.16 16.42 25.76C16.5267 26.3467 16.74 26.8267 17.06 27.2C17.3933 27.56 17.88 27.74 18.52 27.74C19.16 27.74 19.64 27.56 19.96 27.2C20.2933 26.8267 20.5133 26.3467 20.62 25.76C20.7267 25.16 20.78 24.4067 20.78 23.5ZM27.5869 19.58V16.4H33.1269V31H29.5669V19.58H27.5869Z" fill="white"/>
</svg>
