<svg width="47" height="47" viewBox="0 0 47 47" fill="none" xmlns="http://www.w3.org/2000/svg">
<rect width="47" height="47" rx="9" fill="#DF6951"/>
<path d="M10.9 23.5C10.9 21.2067 11.34 19.4 12.22 18.08C13.1133 16.76 14.5467 16.1 16.52 16.1C18.4933 16.1 19.92 16.76 20.8 18.08C21.6933 19.4 22.14 21.2067 22.14 23.5C22.14 25.82 21.6933 27.64 20.8 28.96C19.92 30.28 18.4933 30.94 16.52 30.94C14.5467 30.94 13.1133 30.28 12.22 28.96C11.34 27.64 10.9 25.82 10.9 23.5ZM18.78 23.5C18.78 22.1533 18.6333 21.12 18.34 20.4C18.0467 19.6667 17.44 19.3 16.52 19.3C15.6 19.3 14.9933 19.6667 14.7 20.4C14.4067 21.12 14.26 22.1533 14.26 23.5C14.26 24.4067 14.3133 25.16 14.42 25.76C14.5267 26.3467 14.74 26.8267 15.06 27.2C15.3933 27.56 15.88 27.74 16.52 27.74C17.16 27.74 17.64 27.56 17.96 27.2C18.2933 26.8267 18.5133 26.3467 18.62 25.76C18.7267 25.16 18.78 24.4067 18.78 23.5ZM36.2269 19.38H29.9869V22.14C30.2535 21.8467 30.6269 21.6067 31.1069 21.42C31.5869 21.2333 32.1069 21.14 32.6669 21.14C33.6669 21.14 34.4935 21.3667 35.1469 21.82C35.8135 22.2733 36.3002 22.86 36.6069 23.58C36.9135 24.3 37.0669 25.08 37.0669 25.92C37.0669 27.48 36.6269 28.72 35.7469 29.64C34.8669 30.5467 33.6269 31 32.0269 31C30.9602 31 30.0335 30.82 29.2469 30.46C28.4602 30.0867 27.8535 29.5733 27.4269 28.92C27.0002 28.2667 26.7669 27.5133 26.7269 26.66H30.0669C30.1469 27.0733 30.3402 27.42 30.6469 27.7C30.9535 27.9667 31.3735 28.1 31.9069 28.1C32.5335 28.1 33.0002 27.9 33.3069 27.5C33.6135 27.1 33.7669 26.5667 33.7669 25.9C33.7669 25.2467 33.6069 24.7467 33.2869 24.4C32.9669 24.0533 32.5002 23.88 31.8869 23.88C31.4335 23.88 31.0602 23.9933 30.7669 24.22C30.4735 24.4333 30.2802 24.72 30.1869 25.08H26.8869V16.38H36.2269V19.38Z" fill="white"/>
</svg>
